<svg xmlns="http://www.w3.org/2000/svg" width="100" height="100" viewBox="0 0 100 100" role="img" aria-labelledby="title desc">
  <title id="title">進度脈搏圖標</title>
  <desc id="desc">六邊形、圓形靶心與上升脈搏線形成進度焦點</desc>
  <rect width="100" height="100" rx="24" fill="#F7F7F2"/>
  <polygon points="50,11 84,30.5 84,69.5 50,89 16,69.5 16,30.5" fill="#87A96B" fill-opacity=".13" stroke="#263238" stroke-width="3"/>
  <polygon points="50,20 76,35 76,65 50,80 24,65 24,35" fill="none" stroke="#87A96B" stroke-width="1.5" stroke-dasharray="4 4"/>
  <circle cx="50" cy="51" r="18" fill="#F7F7F2" stroke="#66736A" stroke-width="2"/>
  <circle cx="50" cy="51" r="10" fill="#F4D35E" fill-opacity=".8" stroke="#263238" stroke-width="2"/>
  <circle cx="50" cy="51" r="3.5" fill="#263238"/>
  <path d="M20 65h11l5-12 7 8 8-20 7 14 8-5 6 5h9" fill="none" stroke="#263238" stroke-width="2.7" stroke-linecap="round" stroke-linejoin="round"/>
  <path d="M76 55l5-5 5 5" fill="none" stroke="#87A96B" stroke-width="2.5" stroke-linecap="round" stroke-linejoin="round"/>
</svg>
