<svg xmlns="http://www.w3.org/2000/svg" viewBox="0 0 80 80">
  <!-- 熊熊風格圖標 - 目標達成 -->
  <defs>
    <linearGradient id="bearGradIcon" x1="0%" y1="0%" x2="100%" y2="100%">
      <stop offset="0%" style="stop-color:#D4A574"/>
      <stop offset="100%" style="stop-color:#F5DEB3"/>
    </linearGradient>
  </defs>
  
  <!-- 熊熊頭像主體 -->
  <circle cx="40" cy="42" r="28" fill="#D4A574"/>
  
  <!-- 熊熊耳朵 -->
  <circle cx="20" cy="20" r="10" fill="#C49A6C"/>
  <circle cx="60" cy="20" r="10" fill="#C49A6C"/>
  
  <!-- 熊熊眼睛 - 笑眼 -->
  <path d="M28 40 Q32 35 36 40" stroke="#5D3A1A" stroke-width="3" fill="none" stroke-linecap="round"/>
  <path d="M44 40 Q48 35 52 40" stroke="#5D3A1A" stroke-width="3" fill="none" stroke-linecap="round"/>
  
  <!-- 熊熊鼻子 -->
  <ellipse cx="40" cy="50" rx="8" ry="6" fill="#5D3A1A"/>
  <ellipse cx="40" cy="48" rx="3" ry="2" fill="#8B5A2B"/>
  
  <!-- 獎牌/達成標記 -->
  <circle cx="62" cy="22" r="14" fill="#FFD700"/>
  <path d="M56 22 L62 18 L68 22 L62 28 Z" fill="#FFA500"/>
  
  <!-- 星星裝飾 -->
  <polygon points="18,55 20,60 25,60 21,63 23,68 18,65 13,68 15,63 11,60 16,60" fill="#FFD700" opacity="0.8"/>
</svg>