<svg xmlns="http://www.w3.org/2000/svg" viewBox="0 0 64 64" fill="none">
  <!-- Lightbulb Idea Icon -->
  <path d="M32 6 C20 6 12 16 12 26 C12 34 16 40 22 44 L22 52 C22 54 24 56 26 56 L38 56 C40 56 42 54 42 52 L42 44 C48 40 52 34 52 26 C52 16 44 6 32 6Z" fill="#FFF3CD" stroke="#F0C400" stroke-width="2"/>
  <line x1="24" y1="56" x2="40" y2="56" stroke="#F0C400" stroke-width="2" stroke-linecap="round"/>
  <line x1="26" y1="50" x2="38" y2="50" stroke="#F0C400" stroke-width="2" stroke-linecap="round"/>
  <line x1="32" y1="14" x2="32" y2="22" stroke="#F0C400" stroke-width="2" stroke-linecap="round"/>
  <path d="M24 20 L28 20" stroke="#F0C400" stroke-width="2" stroke-linecap="round"/>
  <path d="M36 20 L40 20" stroke="#F0C400" stroke-width="2" stroke-linecap="round"/>
  <path d="M26 30 Q32 38 38 30" stroke="#FFB800" stroke-width="2" fill="none" stroke-linecap="round"/>
  <circle cx="32" cy="28" r="2" fill="#FFB800"/>
</svg>