<svg xmlns="http://www.w3.org/2000/svg" viewBox="0 0 1920 1080">
  <defs>
    <linearGradient id="cornerGrad" x1="0%" y1="0%" x2="100%" y2="100%">
      <stop offset="0%" style="stop-color:#2C3E50"/>
      <stop offset="100%" style="stop-color:#34495E"/>
    </linearGradient>
    <linearGradient id="lineGrad" x1="0%" y1="0%" x2="100%" y2="0%">
      <stop offset="0%" style="stop-color:#5D6D7E"/>
      <stop offset="100%" style="stop-color:#85929E"/>
    </linearGradient>
  </defs>
  
  <!-- 左上角 -->
  <path d="M0,0 L80,0 L80,8 L8,8 L8,80 L0,80 Z" fill="url(#cornerGrad)"/>
  <path d="M0,0 L50,0 L50,3 L3,3 L3,50 L0,50 Z" fill="#1A252F"/>
  
  <!-- 右上角 -->
  <path d="M1840,0 L1920,0 L1920,80 L1840,80 L1840,8 L1912,8 L1912,0 Z" fill="url(#cornerGrad)"/>
  <path d="M1870,0 L1920,0 L1920,50 L1917,50 L1917,3 L1870,3 Z" fill="#1A252F"/>
  
  <!-- 左下角 -->
  <path d="M0,1000 L0,1080 L80,1080 L80,1072 L8,1072 L8,1000 Z" fill="url(#cornerGrad)"/>
  <path d="M0,1030 L3,1030 L3,1077 L50,1077 L50,1080 L0,1080 Z" fill="#1A252F"/>
  
  <!-- 右下角 -->
  <path d="M1840,1000 L1840,1072 L1912,1072 L1912,1080 L1920,1080 L1920,1000 Z" fill="url(#cornerGrad)"/>
  <path d="M1870,1077 L1870,1080 L1920,1080 L1920,1030 L1917,1030 L1917,1077 Z" fill="#1A252F"/>
  
  <!-- 頂部線 -->
  <rect x="100" y="12" width="1720" height="4" fill="url(#lineGrad)" rx="2"/>
  
  <!-- 底部線 -->
  <rect x="100" y="1064" width="1720" height="4" fill="url(#lineGrad)" rx="2"/>
  
  <!-- 左側線 -->
  <rect x="12" y="100" width="4" height="880" fill="url(#lineGrad)" rx="2"/>
  
  <!-- 右側線 -->
  <rect x="1904" y="100" width="4" height="880" fill="url(#lineGrad)" rx="2"/>
</svg>