<svg xmlns="http://www.w3.org/2000/svg" viewBox="0 0 100 100" width="100" height="100">
  <!-- 熊熊頭 -->
  <circle cx="50" cy="52" r="38" fill="#8B5A2B"/>
  <!-- 熊熊耳朵 -->
  <circle cx="20" cy="22" r="15" fill="#8B5A2B"/>
  <circle cx="80" cy="22" r="15" fill="#8B5A2B"/>
  <circle cx="20" cy="22" r="9" fill="#D4A574"/>
  <circle cx="80" cy="22" r="9" fill="#D4A574"/>
  <!-- 熊熊臉 -->
  <ellipse cx="50" cy="55" rx="28" ry="25" fill="#D4A574"/>
  <!-- 熊熊眼睛 -->
  <circle cx="38" cy="48" r="5" fill="#5D4037"/>
  <circle cx="62" cy="48" r="5" fill="#5D4037"/>
  <circle cx="39" cy="46" r="2" fill="#ffffff"/>
  <circle cx="63" cy="46" r="2" fill="#ffffff"/>
  <!-- 熊熊鼻子 -->
  <ellipse cx="50" cy="60" rx="6" ry="4" fill="#5D4037"/>
  <!-- 熊熊嘴巴 -->
  <path d="M 44 66 Q 50 72 56 66" stroke="#5D4037" stroke-width="2" fill="none" stroke-linecap="round"/>
  <!-- 熊熊蝴蝶結 -->
  <circle cx="50" cy="20" r="6" fill="#FF6B6B"/>
  <path d="M 35 20 Q 42 12 50 20 Q 58 12 65 20" fill="#FF6B6B"/>
  <path d="M 35 20 Q 42 28 50 20 Q 58 28 65 20" fill="#FF6B6B"/>
  <!-- 心形氣球 -->
  <path d="M 78 75 C 78 70 85 70 85 75 C 85 82 78 90 78 90 C 78 90 71 82 71 75 C 71 70 78 70 78 75" fill="#FF6B6B" transform="translate(5,-20)"/>
  <path d="M 25 75 C 25 70 18 70 18 75 C 18 82 25 90 25 90 C 25 90 32 82 32 75 C 32 70 25 70 25 75" fill="#FF6B6B" transform="translate(-5,-20)"/>
</svg>