<svg xmlns="http://www.w3.org/2000/svg" viewBox="0 0 100 100" width="100" height="100">
  <!-- 熊熊身體 - 側躺姿勢 -->
  <ellipse cx="50" cy="65" rx="35" ry="22" fill="#8B5A2B"/>
  <!-- 熊熊頭部 -->
  <circle cx="50" cy="40" r="28" fill="#8B5A2B"/>
  <!-- 耳朵 -->
  <circle cx="25" cy="20" r="12" fill="#8B5A2B"/>
  <circle cx="75" cy="20" r="12" fill="#8B5A2B"/>
  <circle cx="25" cy="20" r="7" fill="#D4A574"/>
  <circle cx="75" cy="20" r="7" fill="#D4A574"/>
  <!-- 臉部 -->
  <ellipse cx="50" cy="45" rx="20" ry="18" fill="#D4A574"/>
  <!-- 眼睛 -->
  <circle cx="40" cy="38" r="5" fill="#5D4037"/>
  <circle cx="60" cy="38" r="5" fill="#5D4037"/>
  <circle cx="41" cy="36" r="2" fill="#ffffff"/>
  <circle cx="61" cy="36" r="2" fill="#ffffff"/>
  <!-- 腮紅 -->
  <ellipse cx="32" cy="48" rx="5" ry="3" fill="#FFB6C1" opacity="0.6"/>
  <ellipse cx="68" cy="48" rx="5" ry="3" fill="#FFB6C1" opacity="0.6"/>
  <!-- 鼻子 -->
  <ellipse cx="50" cy="46" rx="4" ry="3" fill="#5D4037"/>
  <!-- 嘴巴 -->
  <path d="M 44 52 Q 50 56 56 52" stroke="#5D4037" stroke-width="1.5" fill="none" stroke-linecap="round"/>
  <!-- 蝴蝶結 -->
  <circle cx="50" cy="18" r="4" fill="#FF6B6B"/>
  <path d="M 38 18 Q 44 12 50 18 Q 56 12 62 18 Q 56 24 50 18 Q 44 24 38 18" fill="#FF6B6B"/>
  <!-- 小手 -->
  <circle cx="28" cy="60" r="8" fill="#8B5A2B"/>
  <circle cx="72" cy="60" r="8" fill="#8B5A2B"/>
  <!-- 腳掌 -->
  <ellipse cx="22" cy="75" rx="8" ry="5" fill="#D4A574"/>
  <ellipse cx="78" cy="75" rx="8" ry="5" fill="#D4A574"/>
</svg>