<svg xmlns="http://www.w3.org/2000/svg" viewBox="0 0 100 100" width="100" height="100">
  <!-- 星星主體 -->
  <polygon points="50,5 61,40 98,40 68,62 79,97 50,75 21,97 32,62 2,40 39,40" fill="#FFD700" stroke="#FFA500" stroke-width="3"/>
  <!-- 星星光芒 -->
  <polygon points="50,20 53,35 68,35 56,45 60,60 50,50 40,60 44,45 32,35 47,35" fill="#FFEC8B"/>
  <!-- 眼睛 -->
  <circle cx="43" cy="40" r="3" fill="#5D4037"/>
  <circle cx="57" cy="40" r="3" fill="#5D4037"/>
  <!-- 嘴巴 -->
  <path d="M 45 48 Q 50 53 55 48" stroke="#5D4037" stroke-width="2" fill="none" stroke-linecap="round"/>
  <!-- 腮紅 -->
  <circle cx="38" cy="48" r="4" fill="#FFB6C1" opacity="0.6"/>
  <circle cx="62" cy="48" r="4" fill="#FFB6C1" opacity="0.6"/>
</svg>