<svg xmlns="http://www.w3.org/2000/svg" viewBox="0 0 1920 1080" width="1920" height="1080">
  <title>四角邊框</title>
  <desc>工作報告正式風格四角邊框，結合手繪元素與無障礙設計</desc>
  <!-- 左上角 -->
  <path d="M0 0 L120 0 Q100 20 100 40 L100 100 Q80 80 60 80 L20 80 Q0 80 0 60 Z" fill="#8B6914"/>
  <path d="M10 10 Q50 10 50 30 L50 60 Q30 50 20 50 L10 50 Z" fill="#C4A35A"/>
  <!-- 右上角 -->
  <path d="M1920 0 L1800 0 Q1820 20 1820 40 L1820 100 Q1840 80 1860 80 L1900 80 Q1920 80 1920 60 Z" fill="#8B6914"/>
  <path d="M1910 10 Q1870 10 1870 30 L1870 60 Q1890 50 1900 50 L1910 50 Z" fill="#C4A35A"/>
  <!-- 左下角 -->
  <path d="M0 1080 L120 1080 Q100 1060 100 1040 L100 980 Q80 1000 60 1000 L20 1000 Q0 1000 0 1020 Z" fill="#8B6914"/>
  <path d="M10 1070 Q50 1070 50 1050 L50 1020 Q30 1030 20 1030 L10 1030 Z" fill="#C4A35A"/>
  <!-- 右下角 -->
  <path d="M1920 1080 L1800 1080 Q1820 1060 1820 1040 L1820 980 Q1840 1000 1860 1000 L1900 1000 Q1920 1000 1920 1020 Z" fill="#8B6914"/>
  <path d="M1910 1070 Q1870 1070 1870 1050 L1870 1020 Q1890 1030 1900 1030 L1910 1030 Z" fill="#C4A35A"/>
  <!-- 內圈裝飾線 -->
  <rect x="30" y="30" width="1860" height="1020" rx="0" fill="none" stroke="#F5E6D3" stroke-width="1" stroke-dasharray="8,8"/>
</svg>