<svg xmlns="http://www.w3.org/2000/svg" viewBox="0 0 800 600">
  <!-- Full frame border - Academic style -->
  <!-- Top border -->
  <rect x="10" y="10" width="780" height="20" fill="#5d4037"/>
  <rect x="15" y="35" width="770" height="6" fill="#8d6e63"/>
  <rect x="20" y="45" width="760" height="2" fill="#d7ccc8"/>
  <!-- Bottom border -->
  <rect x="10" y="570" width="780" height="20" fill="#5d4037"/>
  <rect x="15" y="559" width="770" height="6" fill="#8d6e63"/>
  <rect x="20" y="553" width="760" height="2" fill="#d7ccc8"/>
  <!-- Left border -->
  <rect x="10" y="10" width="20" height="580" fill="#5d4037"/>
  <rect x="35" y="15" width="6" height="570" fill="#8d6e63"/>
  <rect x="45" y="20" width="2" height="560" fill="#d7ccc8"/>
  <!-- Right border -->
  <rect x="770" y="10" width="20" height="580" fill="#5d4037"/>
  <rect x="759" y="15" width="6" height="570" fill="#8d6e63"/>
  <rect x="753" y="20" width="2" height="560" fill="#d7ccc8"/>
  <!-- Corner decorations -->
  <circle cx="10" cy="10" r="8" fill="#a1887f"/>
  <circle cx="790" cy="10" r="8" fill="#a1887f"/>
  <circle cx="10" cy="590" r="8" fill="#a1887f"/>
  <circle cx="790" cy="590" r="8" fill="#a1887f"/>
</svg>